<?xml version="1.0" encoding="utf-8"?>
<!-- Generator: Adobe Illustrator 24.0.0, SVG Export Plug-In . SVG Version: 6.00 Build 0)  -->
<svg version="1.1" id="Layer_1" xmlns="http://www.w3.org/2000/svg" xmlns:xlink="http://www.w3.org/1999/xlink" x="0px" y="0px"
	 viewBox="0 0 237.6 72" style="enable-background:new 0 0 237.6 72;" xml:space="preserve">
<style type="text/css">
	.st0{fill:#FFFFFF;}
</style>
<g>
	<polygon class="st0" points="38.59,13.25 38.54,13.18 38.54,3.59 19.26,13.45 29.13,18.27 	"/>
	<polygon class="st0" points="29.91,27.87 29.66,28.01 28.55,60.9 27.44,27.98 27.19,27.83 19.51,23.38 10.3,18.03 0.75,12.49 
		4.89,20.8 8.97,28.97 22.89,56.93 28.55,68.28 32.73,60.22 57.33,12.78 38.35,23.23 	"/>
	<path class="st0" d="M82.47,53.76h-2.18v7.14h2.36c2.2,0,3.42-1.27,3.42-3.59c0-1.18-0.31-2.08-0.91-2.67
		C84.55,54.05,83.65,53.76,82.47,53.76z M84.19,59.07c-0.31,0.33-0.83,0.49-1.54,0.49h-0.96v-4.47h0.78c0.77,0,1.34,0.17,1.69,0.49
		c0.34,0.32,0.51,0.9,0.51,1.73S84.51,58.73,84.19,59.07z"/>
	<polygon class="st0" points="88.37,57.87 91.47,57.87 91.47,56.53 88.37,56.53 88.37,55.09 91.87,55.09 91.87,53.76 86.97,53.76 
		86.97,60.9 91.99,60.9 91.99,59.56 88.37,59.56 	"/>
	<path class="st0" d="M95.89,56.61l-0.77-0.17c-0.62-0.13-0.87-0.28-0.96-0.36C94.09,56.03,94,55.93,94,55.66
		c0-0.22,0.08-0.38,0.25-0.5c0.21-0.16,0.55-0.23,1-0.23c1.27,0,1.34,0.53,1.37,0.79l0.06,0.48l1.39-0.14l-0.07-0.51
		c-0.08-0.63-0.37-1.13-0.86-1.48c-0.46-0.33-1.09-0.49-1.89-0.49c-0.79,0-1.43,0.18-1.9,0.54c-0.51,0.39-0.76,0.92-0.76,1.58
		c0,0.58,0.2,1.06,0.59,1.4c0.35,0.31,0.87,0.53,1.58,0.69l0.76,0.16c0.56,0.12,0.83,0.28,0.95,0.39c0.13,0.12,0.2,0.28,0.2,0.51
		c0,0.26-0.09,0.44-0.3,0.59c-0.25,0.18-0.62,0.27-1.1,0.27c-0.5,0-0.88-0.09-1.13-0.28c-0.23-0.17-0.36-0.41-0.41-0.75l-0.07-0.49
		l-1.4,0.17l0.07,0.5c0.1,0.7,0.41,1.25,0.94,1.64c0.5,0.37,1.17,0.56,1.98,0.56c0.83,0,1.5-0.2,2-0.58
		c0.54-0.42,0.81-0.99,0.81-1.68c0-0.58-0.19-1.06-0.57-1.43C97.15,57.01,96.62,56.76,95.89,56.61z"/>
	<rect x="98.91" y="53.76" class="st0" width="1.4" height="7.14"/>
	<path class="st0" d="M104.49,54.95c0.8,0,1.32,0.37,1.62,1.17l0.15,0.39l1.35-0.25l-0.18-0.54c-0.22-0.66-0.59-1.18-1.1-1.55
		c-0.51-0.36-1.12-0.55-1.82-0.55c-1.02,0-1.82,0.35-2.39,1.03c-0.55,0.65-0.83,1.55-0.83,2.67c0,1.08,0.29,1.96,0.85,2.64
		c0.58,0.71,1.38,1.07,2.35,1.07c0.69,0,1.27-0.17,1.73-0.5l0.02,0.37h1.28v-4h-3.4v1.34l2.03-0.03l0,0.06
		c-0.08,0.47-0.27,0.83-0.54,1.07c-0.28,0.24-0.64,0.35-1.1,0.35c-0.57,0-0.98-0.19-1.31-0.6c-0.34-0.42-0.51-1.02-0.51-1.77
		c0-0.78,0.17-1.38,0.5-1.8C103.52,55.13,103.93,54.95,104.49,54.95z"/>
	<polygon class="st0" points="113.26,58.38 110.04,53.76 108.76,53.76 108.76,60.9 110.14,60.9 110.14,56.27 113.36,60.9 
		114.64,60.9 114.64,53.76 113.26,53.76 	"/>
	<path class="st0" d="M121.14,53.76l-0.03-0.1l-0.03,0.1h-0.59l-2.79,7.14h1.48l0.71-1.82h2.43l0.7,1.82h1.51l-2.82-7.14H121.14z
		 M121.11,55.95l0.69,1.78h-1.38L121.11,55.95z"/>
	<polygon class="st0" points="129.25,58.38 126.03,53.76 124.75,53.76 124.75,60.9 126.13,60.9 126.13,56.27 129.35,60.9 
		130.63,60.9 130.63,53.76 129.25,53.76 	"/>
	<path class="st0" d="M134.05,53.76h-2.18v7.14h2.36c2.2,0,3.42-1.27,3.42-3.59c0-1.18-0.31-2.08-0.91-2.67
		C136.14,54.05,135.24,53.76,134.05,53.76z M133.27,55.09h0.78c0.77,0,1.34,0.17,1.69,0.49c0.34,0.32,0.51,0.9,0.51,1.73
		c0,0.83-0.16,1.42-0.48,1.76c-0.31,0.33-0.83,0.49-1.54,0.49h-0.96V55.09z"/>
	<path class="st0" d="M146.17,58.38c-0.11,0.42-0.3,0.73-0.6,0.95c-0.3,0.22-0.67,0.33-1.13,0.33c-0.61,0-1.06-0.19-1.38-0.57
		c-0.34-0.4-0.51-1.01-0.51-1.8c0-0.78,0.17-1.38,0.51-1.77c0.32-0.38,0.77-0.56,1.38-0.56c0.42,0,0.78,0.1,1.07,0.3
		s0.49,0.47,0.61,0.83l0.14,0.39l1.36-0.2l-0.17-0.56c-0.21-0.66-0.58-1.18-1.11-1.56c-0.53-0.37-1.16-0.56-1.88-0.56
		c-1,0-1.82,0.34-2.42,1.01c-0.58,0.66-0.88,1.57-0.88,2.7s0.3,2.04,0.88,2.7c0.6,0.68,1.41,1.02,2.42,1.02
		c0.76,0,1.42-0.21,1.96-0.62c0.54-0.41,0.91-1,1.09-1.73l0.14-0.54l-1.36-0.18L146.17,58.38z"/>
	<path class="st0" d="M151.33,53.6c-1.03,0-1.85,0.35-2.45,1.04c-0.57,0.67-0.87,1.57-0.87,2.68c0,1.1,0.29,2,0.88,2.67
		c0.59,0.69,1.41,1.04,2.44,1.04c1.03,0,1.85-0.35,2.44-1.03c0.58-0.66,0.87-1.56,0.87-2.67c0-1.1-0.29-2-0.87-2.68
		C153.18,53.95,152.36,53.6,151.33,53.6z M152.73,59.1c-0.33,0.4-0.79,0.59-1.4,0.59c-0.63,0-1.08-0.19-1.4-0.59
		c-0.35-0.42-0.52-1.02-0.52-1.78c0-0.77,0.18-1.37,0.53-1.79c0.32-0.4,0.76-0.58,1.4-0.58c0.61,0,1.07,0.19,1.4,0.59
		c0.35,0.42,0.52,1.02,0.52,1.79S153.08,58.68,152.73,59.1z"/>
	<polygon class="st0" points="160.13,58.38 156.91,53.76 155.63,53.76 155.63,60.9 157,60.9 157,56.27 160.23,60.9 161.51,60.9 
		161.51,53.76 160.13,53.76 	"/>
	<polygon class="st0" points="161.98,55.09 163.99,55.09 163.99,60.9 165.39,60.9 165.39,55.09 167.4,55.09 167.4,53.76 
		161.98,53.76 	"/>
	<path class="st0" d="M176.76,53.76l-0.03-0.09l-0.03,0.09h-0.59l-2.76,7.07l-0.38-2.23c-0.08-0.46-0.25-0.83-0.5-1.12
		c0.11-0.08,0.21-0.18,0.3-0.28c0.32-0.36,0.48-0.83,0.48-1.38c0-0.64-0.21-1.16-0.64-1.53c-0.4-0.36-0.95-0.54-1.63-0.54h-3.11
		v7.14h1.39v-2.8h1.45c0.28,0,0.49,0.06,0.62,0.18c0.14,0.12,0.24,0.35,0.29,0.65l0.33,1.97h1.37h0.04h1.44l0.71-1.82h2.43l0.7,1.82
		h1.51l-2.83-7.14H176.76z M169.28,55.09h1.61c0.35,0,0.62,0.07,0.78,0.2c0.09,0.07,0.21,0.21,0.21,0.58c0,0.3-0.08,0.5-0.25,0.64
		c-0.19,0.16-0.49,0.24-0.89,0.24h-1.46V55.09z M176.74,55.95l0.69,1.78h-1.38L176.74,55.95z"/>
	<path class="st0" d="M184.83,58.38c-0.11,0.42-0.3,0.73-0.6,0.95c-0.29,0.22-0.67,0.33-1.12,0.33c-0.61,0-1.05-0.18-1.38-0.57
		c-0.34-0.4-0.51-1.01-0.51-1.8c0-0.79,0.17-1.38,0.51-1.77c0.32-0.38,0.78-0.56,1.38-0.56c0.42,0,0.78,0.1,1.07,0.3
		c0.29,0.2,0.49,0.47,0.61,0.83l0.14,0.39l1.36-0.2l-0.17-0.56c-0.21-0.66-0.58-1.18-1.11-1.56c-0.53-0.37-1.16-0.56-1.88-0.56
		c-1,0-1.82,0.34-2.42,1.01c-0.58,0.66-0.88,1.56-0.88,2.7c0,1.13,0.3,2.04,0.88,2.7c0.6,0.68,1.41,1.02,2.42,1.02
		c0.76,0,1.42-0.21,1.96-0.62c0.54-0.41,0.91-1,1.09-1.74l0.13-0.54l-1.35-0.18L184.83,58.38z"/>
	<polygon class="st0" points="186.08,55.09 188.09,55.09 188.09,60.9 189.49,60.9 189.49,55.09 191.5,55.09 191.5,53.76 
		186.08,53.76 	"/>
	<rect x="191.98" y="53.76" class="st0" width="1.4" height="7.14"/>
	<polygon class="st0" points="199.13,58.38 195.91,53.76 194.63,53.76 194.63,60.9 196.01,60.9 196.01,56.27 199.23,60.9 
		200.51,60.9 200.51,53.76 199.13,53.76 	"/>
	<path class="st0" d="M204.69,54.95c0.8,0,1.32,0.37,1.62,1.17l0.15,0.39l1.35-0.25l-0.18-0.54c-0.22-0.66-0.58-1.18-1.1-1.55
		c-0.51-0.36-1.12-0.55-1.82-0.55c-1.02,0-1.82,0.35-2.38,1.03c-0.55,0.65-0.83,1.55-0.83,2.67c0,1.08,0.29,1.96,0.85,2.64
		c0.58,0.71,1.38,1.07,2.35,1.07c0.69,0,1.27-0.17,1.73-0.5l0.01,0.37h1.28v-4h-3.4v1.34l2.03-0.03l0,0.06
		c-0.08,0.47-0.27,0.83-0.54,1.07c-0.28,0.24-0.63,0.35-1.1,0.35c-0.57,0-0.98-0.19-1.31-0.6c-0.34-0.42-0.51-1.02-0.51-1.77
		c0-0.78,0.17-1.38,0.5-1.8C203.72,55.13,204.12,54.95,204.69,54.95z"/>
	<polygon class="st0" points="213.2,53.76 211.81,53.76 211.81,60.9 216.57,60.9 216.57,59.56 213.2,59.56 	"/>
	<polygon class="st0" points="215.59,55.09 217.6,55.09 217.6,60.9 219,60.9 219,55.09 221.01,55.09 221.01,53.76 215.59,53.76 	"/>
	<path class="st0" d="M223.68,53.76h-2.18v7.14h2.36c2.2,0,3.42-1.27,3.42-3.59c0-1.18-0.31-2.08-0.91-2.67
		C225.76,54.05,224.86,53.76,223.68,53.76z M222.89,55.09h0.78c0.77,0,1.34,0.17,1.69,0.49c0.34,0.32,0.51,0.9,0.51,1.73
		c0,0.83-0.16,1.42-0.48,1.76c-0.31,0.33-0.83,0.49-1.54,0.49h-0.96V55.09z"/>
	<rect x="228.1" y="59.22" class="st0" width="1.74" height="1.68"/>
	<path class="st0" d="M92.92,38.63l-0.11-0.91c-0.08-0.15-0.18-0.28-0.33-0.38c-0.14-0.11-0.29-0.2-0.44-0.27
		c-0.24-0.05-0.45-0.04-0.63,0.02c-0.18,0.06-0.35,0.15-0.52,0.27c-0.24,0.29-0.36,0.61-0.36,0.96c0,0.35-0.08,0.67-0.23,0.96
		l-0.79,0.48H76.65c-0.24-0.03-0.47-0.1-0.69-0.2c-0.22-0.1-0.43-0.23-0.64-0.38c-0.15-0.21-0.27-0.43-0.35-0.67
		c-0.08-0.23-0.14-0.47-0.17-0.71v-6.76c0.03-0.32,0.1-0.62,0.23-0.93c0.12-0.3,0.28-0.59,0.47-0.86c0.21-0.21,0.43-0.37,0.65-0.46
		c0.22-0.1,0.45-0.17,0.69-0.21H89.5l0.79,0.36c0.32,0.24,0.46,0.56,0.44,0.96s0.09,0.74,0.33,1.03l0.61,0.36l0.7-0.07
		c0.17-0.08,0.31-0.18,0.43-0.33c0.12-0.14,0.22-0.3,0.29-0.46c0.05-0.51,0.01-1.01-0.11-1.48c-0.12-0.48-0.34-0.92-0.66-1.32
		c-0.41-0.48-0.86-0.82-1.36-1.02s-1.03-0.33-1.58-0.41H76.83c-0.53,0.03-1.02,0.14-1.48,0.32s-0.89,0.45-1.28,0.81
		c-0.48,0.48-0.84,1-1.09,1.56s-0.42,1.15-0.52,1.79v7.67c0.08,0.44,0.2,0.86,0.38,1.28c0.18,0.42,0.43,0.8,0.75,1.17
		c0.44,0.44,0.93,0.76,1.49,0.96c0.56,0.2,1.14,0.34,1.74,0.42h12.55c0.41-0.05,0.79-0.13,1.14-0.25c0.35-0.12,0.69-0.29,1.01-0.52
		c0.45-0.36,0.79-0.78,1.01-1.27C92.76,39.64,92.89,39.14,92.92,38.63z"/>
	<path class="st0" d="M112.69,26.19H101.2c-1.04,0.08-1.98,0.45-2.83,1.13c-0.87,0.92-1.39,1.95-1.54,3.1v7.44
		c0.15,1.07,0.54,2.01,1.18,2.8c0.92,0.92,1.98,1.42,3.19,1.49h11.65c1.04-0.08,1.96-0.44,2.76-1.09c1.04-1,1.6-2.19,1.67-3.57
		v-6.65c-0.08-1.12-0.45-2.11-1.13-2.99C115.2,26.87,114.05,26.31,112.69,26.19z M114.89,37.68c-0.11,0.63-0.4,1.19-0.88,1.67
		l-1.09,0.41H101.2c-0.44-0.03-0.84-0.19-1.2-0.48c-0.48-0.51-0.76-1.11-0.84-1.79v-6.65c0.08-0.63,0.31-1.19,0.7-1.67
		c0.36-0.36,0.78-0.57,1.27-0.61h11.67c0.48,0.09,0.92,0.29,1.31,0.61c0.48,0.44,0.74,0.96,0.77,1.56V37.68z"/>
	<path class="st0" d="M141.63,41.03V27.32c-0.11-0.6-0.46-0.98-1.06-1.13c-0.33,0-0.63,0.1-0.91,0.29l-0.43,0.72v11.31l-16.8-12.33
		c-0.72-0.21-1.14,0.08-1.24,0.88v14.18l0.23,0.43c0.24,0.27,0.52,0.43,0.84,0.48l0.61-0.11c0.32-0.21,0.54-0.47,0.66-0.79V29.72
		l16.58,12.21C140.96,42.28,141.48,41.98,141.63,41.03z"/>
	<path class="st0" d="M149.06,42.16h12.26c1.12-0.08,2.13-0.45,3.05-1.13c1-0.92,1.53-2.02,1.61-3.3v-0.77
		c-0.08-1-0.42-1.89-1.02-2.69c-0.99-1.04-2.15-1.62-3.46-1.74h-11.56c-0.56-0.08-1.05-0.27-1.49-0.59
		c-0.39-0.33-0.59-0.73-0.59-1.2c0-0.48,0.12-0.92,0.36-1.31c0.47-0.48,1.04-0.77,1.72-0.86h12.39c0.75,0.23,1.15,0.57,1.19,1.03
		c0.04,0.46,0.11,0.81,0.21,1.05c0.11,0.24,0.35,0.45,0.75,0.63c0.41,0.03,0.75-0.05,1.02-0.25c0.29-0.24,0.45-0.52,0.48-0.84
		c0-1.09-0.34-2.02-1.02-2.8c-0.75-0.72-1.67-1.12-2.74-1.2h-12.14c-1.13,0.08-2.17,0.45-3.12,1.13c-0.8,0.72-1.28,1.56-1.43,2.51
		v1.45c0.11,0.71,0.4,1.36,0.88,1.97c1.04,1.04,2.26,1.6,3.66,1.67h11.47c0.48,0.08,0.9,0.26,1.27,0.54
		c0.48,0.39,0.74,0.87,0.77,1.43v0.9c-0.08,0.39-0.21,0.75-0.41,1.06c-0.48,0.48-1.04,0.78-1.67,0.91h-12.44
		c-0.41-0.12-0.71-0.34-0.92-0.66c-0.2-0.32-0.31-0.69-0.31-1.13c0-0.44-0.29-0.74-0.88-0.9c-0.39-0.05-0.68-0.01-0.87,0.11
		c-0.19,0.12-0.37,0.38-0.55,0.79v0.77c0.11,0.75,0.38,1.43,0.84,2.04C147.07,41.62,147.97,42.08,149.06,42.16z"/>
	<path class="st0" d="M169.96,28.57h8.03v12.64l0.25,0.47c0.23,0.27,0.51,0.43,0.84,0.48c0.35,0,0.66-0.12,0.95-0.36l0.29-0.54
		V28.57h8.07l0.61-0.29c0.24-0.24,0.38-0.52,0.41-0.84c-0.04-0.71-0.4-1.12-1.06-1.24h-18.32c-0.45,0.03-0.81,0.32-1.06,0.88v0.61
		C169.16,28.14,169.5,28.43,169.96,28.57z"/>
	<path class="st0" d="M192.97,28.23l0.7,0.34h18.43l0.61-0.29c0.12-0.12,0.21-0.25,0.27-0.38s0.11-0.29,0.13-0.45
		c-0.03-0.72-0.38-1.14-1.06-1.24h-18.32c-0.47,0.08-0.82,0.37-1.06,0.88c-0.03,0.24-0.02,0.45,0.03,0.63
		C192.77,27.89,192.85,28.06,192.97,28.23z"/>
	<path class="st0" d="M213.12,41.03c-0.03-0.74-0.37-1.16-1.02-1.27h-17.1v-4.84h15.2c0.15-0.05,0.29-0.1,0.41-0.16
		c0.12-0.06,0.24-0.13,0.36-0.2l0.29-0.54c0.04-0.24,0.04-0.45-0.02-0.62c-0.06-0.17-0.15-0.34-0.27-0.51l-0.65-0.36h-16.65
		c-0.51,0.11-0.85,0.41-1,0.9v7.83l0.23,0.43c0.12,0.15,0.25,0.26,0.4,0.32c0.14,0.06,0.29,0.11,0.44,0.16h18.25
		C212.63,42.05,213.01,41.68,213.12,41.03z"/>
	<path class="st0" d="M218.68,30.11c0.12-0.3,0.28-0.59,0.47-0.86c0.21-0.21,0.43-0.37,0.64-0.46c0.22-0.1,0.45-0.17,0.69-0.21
		h12.67l0.79,0.36c0.32,0.24,0.46,0.56,0.44,0.96c-0.02,0.4,0.09,0.74,0.33,1.03l0.61,0.36l0.7-0.07c0.17-0.08,0.31-0.18,0.43-0.33
		c0.12-0.14,0.22-0.3,0.29-0.46c0.04-0.51,0.01-1.01-0.11-1.48c-0.12-0.48-0.34-0.92-0.66-1.32c-0.41-0.48-0.86-0.82-1.36-1.02
		c-0.5-0.2-1.03-0.33-1.58-0.41h-12.55c-0.53,0.03-1.02,0.14-1.48,0.32c-0.46,0.18-0.89,0.45-1.28,0.81c-0.48,0.48-0.84,1-1.09,1.56
		s-0.41,1.15-0.52,1.79v7.67c0.08,0.44,0.2,0.86,0.38,1.28c0.18,0.42,0.43,0.8,0.75,1.17c0.44,0.44,0.93,0.76,1.49,0.96
		c0.56,0.2,1.14,0.34,1.74,0.42h12.55c0.41-0.05,0.79-0.13,1.14-0.25c0.35-0.12,0.69-0.29,1.01-0.52c0.45-0.36,0.79-0.78,1.01-1.27
		c0.22-0.48,0.34-0.98,0.37-1.49l-0.11-0.91c-0.08-0.15-0.19-0.28-0.33-0.38c-0.14-0.11-0.29-0.2-0.44-0.27
		c-0.24-0.05-0.45-0.04-0.63,0.02c-0.18,0.06-0.35,0.15-0.52,0.27c-0.24,0.29-0.36,0.61-0.36,0.96c0,0.35-0.08,0.67-0.23,0.96
		l-0.79,0.48H220.3c-0.24-0.03-0.47-0.1-0.69-0.2c-0.22-0.1-0.43-0.23-0.64-0.38c-0.15-0.21-0.27-0.43-0.35-0.67
		c-0.08-0.23-0.14-0.47-0.17-0.71v-6.76C218.48,30.72,218.55,30.41,218.68,30.11z"/>
</g>
</svg>
